inDegrees=no
num_controls=7
num_derivatives=13
num_iterations=98
num_multipliers=7
num_parameters=0
num_slacks=7
num_states=26
objective=0.443581
objective_accelerations=0.001257
objective_balance=0.001676
objective_effort=0.003844
objective_height=0.414956
objective_ligament=0.021847
solver_duration=1334.821618
status=Solve_Succeeded
success=true
DataType=double
version=3
OpenSimVersion=4.5
endheader
time	/jointset/ground_pelvis/pelvis_tilt/value	/jointset/ground_pelvis/pelvis_tx/value	/jointset/ground_pelvis/pelvis_ty/value	/jointset/hip_l/hip_flexion_l/value	/jointset/hip_l/hip_adduction_l/value	/jointset/hip_l/hip_rotation_l/value	/jointset/back/lumbar_extension/value	/jointset/patellofemoral_l/patellar_flexion_l/value	/jointset/knee_l/knee_flexion_l/value	/jointset/knee_l/knee_adduction_l/value	/jointset/knee_l/knee_rotation_l/value	/jointset/ankle_l/ankle_angle_l/value	/jointset/subtalar_l/subtalar_angle_l/value	/jointset/ground_pelvis/pelvis_tilt/speed	/jointset/ground_pelvis/pelvis_tx/speed	/jointset/ground_pelvis/pelvis_ty/speed	/jointset/hip_l/hip_flexion_l/speed	/jointset/hip_l/hip_adduction_l/speed	/jointset/hip_l/hip_rotation_l/speed	/jointset/back/lumbar_extension/speed	/jointset/patellofemoral_l/patellar_flexion_l/speed	/jointset/knee_l/knee_flexion_l/speed	/jointset/knee_l/knee_adduction_l/speed	/jointset/knee_l/knee_rotation_l/speed	/jointset/ankle_l/ankle_angle_l/speed	/jointset/subtalar_l/subtalar_angle_l/speed	/forceset/tau_hip_flexion_l	/forceset/tau_hip_adduction_l	/forceset/tau_hip_rotation_l	/forceset/tau_knee_flexion_l	/forceset/tau_ankle_angle_l	/forceset/tau_subtalar_angle_l	/forceset/tau_lumbar_extension	lambda_cid13_p0	lambda_cid13_p1	lambda_cid13_p2	lambda_cid13_p3	lambda_cid13_p4	lambda_cid13_p5	lambda_cid14_p0	/jointset/ground_pelvis/pelvis_tilt/accel	/jointset/ground_pelvis/pelvis_tx/accel	/jointset/ground_pelvis/pelvis_ty/accel	/jointset/hip_l/hip_flexion_l/accel	/jointset/hip_l/hip_adduction_l/accel	/jointset/hip_l/hip_rotation_l/accel	/jointset/back/lumbar_extension/accel	/jointset/patellofemoral_l/patellar_flexion_l/accel	/jointset/knee_l/knee_flexion_l/accel	/jointset/knee_l/knee_adduction_l/accel	/jointset/knee_l/knee_rotation_l/accel	/jointset/ankle_l/ankle_angle_l/accel	/jointset/subtalar_l/subtalar_angle_l/accel	gamma_cid13_p0	gamma_cid13_p1	gamma_cid13_p2	gamma_cid13_p3	gamma_cid13_p4	gamma_cid13_p5	gamma_cid14_p0
1.5	-0.1193431823701222	0.1202091789698744	0.8928088311378544	0.2136637719163614	-0.3201863255180679	-0.5507995627232832	-0.08100940319441895	0.07352280330967242	0.07352280330965111	-0.1736314133486556	-0.1741990238533869	-0.009820255285193105	0.03879620038231427	-0.003175741952209678	-0.01329247009761351	0.002066956405210836	-0.003533216225968298	0.01233357779228998	-0.01513425962541783	0.1461117997638291	-0.04825631850470261	-0.04825631850470345	-0.002711144870263421	-0.000286489301910884	-0.04105557002604299	-0.009796988132852309	-0.008420497701821055	0.06172314484107359	-0.01674117869244744	-0.06465947749027051	0.01791086753254674	-0.04370242789934758	0.04207139486045334	-31.56428857428795	15.77136975893333	7.127477591526381	3.889042304026355	-546.1231128995405	-32.56022783921303	-41.61980615651044	0.08776025566190181	-0.0596397770043207	0.00557429882035424	-0.02322342567549893	0.004845293570175355	0.007941478350829926	-0.01359204256065608	-0.01303952460427179	-0.01303952460427182	-1.309843590265557e-05	-2.32874519371009e-05	-0.07494412012555511	-0.03789966359017617	-3.413939979016553e-11	1.812943602570778e-10	4.394199806736145e-12	5.426571780826756e-11	-1.56557146242858e-10	4.328623481408412e-11	1.655293068147524e-11
1.51	-0.1193705928162087	0.120073306984457	0.8928297732263971	0.2136273107732208	-0.3200627624651358	-0.5509505098928766	-0.07954908043832924	0.07303965479933627	0.07303965479923498	-0.1736585183526603	-0.1742019073620796	-0.01023448485450669	0.0386963618034124	-0.002308704395395749	-0.01387851097058835	0.002121040575337618	-0.00375831776744088	0.0123778292421209	-0.01505446446246649	0.1459392661818077	-0.04836827649697164	-0.04836827649696858	-0.002709270160121416	-0.0002905526062940406	-0.04178364060743629	-0.01016814362367663	-0.00763549299234736	0.06082549601159983	-0.01692281758603793	-0.06580038980626655	0.01949568628756313	-0.04382640221599478	0.04136325395310197	-31.06742338246476	15.75418665206943	7.111972791943243	3.685564858035795	-546.1024894006955	-32.70035507709518	-41.61138482735691	0.0858219300127992	-0.05757382963135037	0.005262337641390139	-0.02204933504424727	0.004034514421153213	0.008105016369447915	-0.02110680610520569	-0.009507878869544569	-0.009507878869129823	0.0003756534274863344	-0.0006488861180098887	-0.0707330462754249	-0.03633591774288573	-4.244116368546475e-11	1.823552336025637e-10	7.256056162864975e-12	5.725898434909747e-11	-1.501154905392473e-10	3.262580573687503e-11	1.428764474123385e-11
1.52	-0.1193894036018355	0.1199316770728733	0.8928512435289474	0.2135886194514492	-0.3199387930089335	-0.5511006378146227	-0.07809088757605309	0.07255553992059562	0.07255553992057809	-0.173685587030128	-0.1742048417106792	-0.01065579403345974	0.03859288918442117	-0.001455809865830149	-0.0144440553308895	0.00217259920671408	-0.003979251975387148	0.0124148584412095	-0.01497041005542664	0.1456858209964277	-0.04844959218248164	-0.04844959218247469	-0.00270387954242697	-0.000296657278140564	-0.04247149195399801	-0.01052379615107106	-0.006850488281745809	0.05992784718212179	-0.01710445647921328	-0.06694130212175915	0.02108050504279464	-0.04395037653252715	0.04065511304650363	-30.57075949041111	15.73696606223725	7.096557042497658	3.485613722421575	-546.0831110706747	-32.84087880320405	-41.60291263962615	0.08493165021277374	-0.05554047447002055	0.005069191070322933	-0.02238995897022798	0.003400843421716105	0.00879332716851358	-0.02977436323201444	-0.006911063252386789	-0.006911063252386704	0.0006900830746199471	-0.0004315609447463685	-0.06690027315972014	-0.03479907090446381	-4.008754887340545e-11	1.765530490719088e-10	1.505621420863713e-11	5.358375059629067e-11	-1.226647569504809e-10	2.909903727397342e-11	1.266490290429571e-11
1.53	-0.1193997548645543	0.1197844894426776	0.8928732170992708	0.2135477483933997	-0.3198144854618045	-0.5512499005509032	-0.07663563603796364	0.07207076757867897	0.07207076757858331	-0.173712573460501	-0.1742078456098392	-0.01108378365067323	0.0384859401372348	-0.0006167329403748408	-0.01499054882635375	0.002221697357198072	-0.004193015587940102	0.01244575348347742	-0.01488120835973327	0.1453507543652215	-0.0484989667307695	-0.04849896673076892	-0.002691628439324754	-0.0003046053117891876	-0.04311978881210915	-0.01086312586990634	-0.006071213552050706	0.05903421959669915	-0.01728410169593948	-0.06806611875889351	0.02264001501298198	-0.04406819648245325	0.03995117060867553	-30.0820879813493	15.71813724729701	7.081780100805151	3.294846196575593	-546.0636918248506	-32.98503348798315	-41.59439530958488	0.08305216893751659	-0.05376549874177079	0.004767492781986168	-0.02057796499041487	0.002799187247007134	0.009122916739702695	-0.03743265072207438	-0.003064231834465834	-0.003064231835560234	0.001759367110507156	-0.001048840145523474	-0.0627979901143383	-0.03306683914381023	-2.641259418477783e-11	1.634588655478543e-10	2.810331779965525e-11	4.282323528149493e-11	-7.289187810873697e-11	3.31517832137734e-11	1.172486417711725e-11
